<?xml version="1.0" standalone="no"?>
<!DOCTYPE svg PUBLIC "-//W3C//DTD SVG 20010904//EN"
 "http://www.w3.org/TR/2001/REC-SVG-20010904/DTD/svg10.dtd">
<svg version="1.0" xmlns="http://www.w3.org/2000/svg"
 width="1080.000000pt" height="1080.000000pt" viewBox="0 0 1080.000000 1080.000000"
 preserveAspectRatio="xMidYMid meet">

<g transform="translate(0.000000,1080.000000) scale(0.100000,-0.100000)"
fill="#000000" stroke="none">
<path d="M2791 7487 c52 -46 129 -145 150 -192 28 -60 24 -134 -10 -209 -38
-85 -74 -109 -322 -216 -179 -78 -415 -195 -494 -245 -334 -213 -489 -451
-487 -749 2 -234 132 -523 373 -833 27 -35 49 -66 49 -71 0 -5 9 -17 21 -28
12 -10 48 -55 82 -99 33 -44 62 -82 64 -85 2 -2 9 2 14 10 8 12 9 10 5 -6 -4
-13 1 -29 14 -44 11 -13 20 -19 20 -14 0 6 -5 15 -12 22 -9 9 -4 12 25 12 20
0 37 5 37 10 0 6 18 10 40 10 34 0 40 -3 40 -21 0 -12 5 -19 13 -16 14 5 10
39 -6 49 -19 12 2 23 46 24 79 2 82 3 69 16 -17 17 -15 33 3 18 31 -26 14 12
-55 117 -38 60 -73 113 -78 118 -9 10 -78 116 -97 147 -5 10 -49 80 -97 156
-76 121 -129 220 -181 342 -24 56 -40 167 -34 232 8 85 61 188 141 274 l64 69
148 0 c133 0 156 -3 214 -24 78 -29 91 -37 200 -119 81 -62 86 -64 133 -59 92
8 90 50 -5 114 -140 94 -247 125 -460 131 -92 2 -156 8 -152 13 12 21 153 119
309 216 44 28 122 77 173 109 51 32 100 64 110 69 73 42 174 142 200 199 51
106 52 269 4 358 -36 66 -115 139 -203 188 -90 48 -117 52 -68 7z"/>
<path d="M2603 7051 c-23 -9 -45 -20 -49 -24 -4 -4 -15 -7 -25 -7 -45 0 -446
-144 -559 -201 -380 -191 -592 -421 -692 -749 -19 -66 -22 -97 -22 -250 0
-149 3 -187 22 -254 12 -44 22 -90 22 -103 0 -13 4 -23 9 -23 5 0 19 -24 31
-52 53 -127 77 -168 146 -250 122 -144 280 -283 431 -381 39 -26 75 -51 78
-57 10 -15 35 -12 35 5 0 17 16 21 22 5 2 -6 21 -2 47 10 23 12 50 19 59 15
10 -3 -87 97 -214 222 -248 245 -311 320 -375 453 -23 47 -45 92 -50 102 -4 9
-18 67 -30 130 -38 199 -16 374 68 533 117 222 340 420 718 640 248 144 359
216 369 243 3 6 4 12 3 11 -1 -1 -21 -9 -44 -18z"/>
<path d="M3426 6163 c-28 -7 -87 -46 -158 -103 -34 -27 -84 -57 -112 -66 -64
-21 -73 -28 -98 -81 -21 -44 -21 -96 -2 -262 8 -72 24 -47 24 39 0 81 8 97 41
79 13 -7 49 -12 80 -12 49 0 63 5 112 39 31 21 57 42 57 47 0 15 -38 6 -56
-14 -46 -51 -118 -64 -187 -35 -39 17 -54 37 -42 56 5 8 14 6 31 -4 52 -35
124 -3 124 56 0 14 7 29 16 32 17 7 64 -15 83 -38 8 -9 23 -16 34 -16 21 0
107 50 107 63 0 10 -2 9 -43 -8 -49 -20 -61 -19 -94 9 -16 13 -46 27 -66 31
-20 4 -37 11 -37 15 0 9 97 50 119 50 21 0 121 47 143 67 46 41 -1 75 -76 56z
m-275 -276 c-13 -13 -26 -3 -16 12 3 6 11 8 17 5 6 -4 6 -10 -1 -17z"/>
<path d="M2170 6147 c0 -29 60 -96 106 -118 26 -14 61 -42 78 -66 43 -58 110
-88 195 -88 36 0 79 4 94 8 49 13 19 26 -47 20 -90 -8 -166 17 -212 70 -39 46
-43 76 -14 95 18 11 21 9 30 -13 6 -15 10 -32 10 -38 1 -20 49 -49 88 -54 43
-5 102 26 103 54 1 27 7 54 13 60 14 14 67 -42 83 -87 19 -54 43 -74 43 -36 0
109 -120 206 -253 206 -35 0 -67 -4 -72 -9 -17 -16 -129 -34 -167 -27 -21 4
-44 13 -52 21 -18 19 -26 19 -26 2z m320 -82 c10 -12 10 -18 0 -30 -25 -30
-61 -7 -46 30 3 8 12 15 19 15 8 0 20 -7 27 -15z"/>
<path d="M3422 5798 c-8 -42 -10 -97 -6 -145 8 -96 -10 -169 -73 -298 -24 -49
-35 -79 -24 -65 37 46 111 204 122 260 7 37 8 98 2 185 l-9 130 -12 -67z"/>
<path d="M2756 5480 c-20 -25 -24 -35 -16 -50 14 -27 29 -34 23 -11 -3 10 3
33 12 51 22 43 13 48 -19 10z"/>
<path d="M3060 5429 c0 -38 -41 -88 -75 -92 -23 -3 -21 -4 12 -5 37 -2 44 2
56 26 21 40 28 80 17 87 -6 3 -10 -4 -10 -16z"/>
<path d="M2840 5402 c0 -11 51 -35 58 -28 3 3 -1 12 -8 21 -13 16 -50 21 -50
7z"/>
<path d="M3276 5243 c-6 -14 -5 -15 5 -6 7 7 10 15 7 18 -3 3 -9 -2 -12 -12z"/>
<path d="M2470 5226 c0 -20 38 -65 70 -81 16 -8 56 -15 89 -15 50 0 73 -6 128
-35 37 -19 72 -35 78 -35 33 0 167 92 153 105 -2 2 -33 -4 -69 -15 -35 -11
-67 -20 -71 -20 -4 0 -20 14 -35 30 -32 34 -48 37 -170 25 -80 -8 -82 -7 -127
23 -29 20 -46 27 -46 18z"/>
<path d="M7125 5083 c-139 -34 -261 -93 -239 -116 7 -6 -15 -17 -66 -32 -24
-7 -24 -7 -5 9 32 25 3 18 -37 -9 -20 -14 -41 -25 -46 -25 -5 0 -44 -34 -87
-75 -44 -41 -93 -85 -109 -96 -47 -33 -79 -77 -82 -115 -1 -21 2 -32 8 -28 6
4 6 -2 -1 -14 -7 -14 -8 -23 -1 -27 5 -3 10 -1 10 5 0 6 5 8 10 5 6 -4 17 9
25 27 l14 33 -6 -51 c-5 -44 -2 -55 16 -73 11 -11 27 -21 34 -21 15 0 37 46
37 76 0 52 130 178 264 256 97 57 327 167 364 174 26 5 31 3 34 -17 9 -61 -28
-191 -99 -342 -24 -53 -46 -103 -47 -111 -1 -8 -7 -20 -12 -27 -26 -33 -112
-270 -123 -336 -12 -82 -7 -105 23 -102 11 0 43 1 70 0 44 -1 48 -2 31 -14
-10 -8 -15 -19 -11 -25 10 -17 61 -15 76 3 7 8 22 15 33 15 24 0 80 31 209
118 54 36 100 63 103 60 3 -3 -6 -36 -20 -73 -19 -49 -25 -82 -23 -119 3 -47
4 -49 15 -26 l11 25 10 -25 11 -25 0 27 c1 15 5 29 10 32 4 3 6 -7 4 -22 -3
-23 -1 -21 11 8 19 50 30 110 17 90 -10 -13 -11 -13 -11 0 0 8 4 21 9 29 14
22 24 -40 12 -72 -11 -28 -6 -33 17 -19 15 10 55 150 48 168 -3 8 2 33 10 56
10 27 13 60 10 88 -4 35 -3 41 5 27 8 -14 14 -15 24 -7 17 14 59 124 79 205
24 99 36 138 62 193 14 28 26 52 27 52 11 0 2 -50 -14 -81 -21 -43 -24 -53 -9
-44 14 9 13 -1 -11 -51 -17 -39 -35 -144 -24 -144 2 0 13 30 24 66 11 36 31
82 45 102 30 45 99 244 94 275 -5 34 -21 26 -46 -23 -18 -37 -21 -39 -16 -15
6 30 6 30 -22 -9 -34 -45 -42 -31 -20 35 8 24 13 45 11 48 -3 2 -5 -1 -5 -8 0
-7 -7 -10 -17 -7 -10 3 -23 2 -29 -2 -20 -13 -64 -129 -73 -196 -11 -73 -19
-95 -31 -76 -6 10 -102 -199 -116 -255 -5 -19 -46 -46 -183 -121 -31 -17 -98
-59 -150 -93 -90 -60 -144 -91 -156 -91 -16 0 20 100 115 315 10 22 35 81 55
130 21 50 53 126 71 170 19 44 34 90 34 103 0 13 7 30 15 39 8 8 12 20 8 26
-4 6 -6 27 -5 47 1 27 -1 30 -7 15 -8 -19 -9 -18 -13 5 -5 21 -5 20 -7 -8 0
-18 -5 -31 -10 -28 -5 3 -12 -9 -17 -27 -7 -29 -8 -26 -12 28 -2 33 -8 65 -14
70 -7 7 -8 3 -3 -13 6 -22 5 -22 -15 -10 -12 8 -19 20 -16 31 5 22 -22 37 -69
37 -21 0 -34 4 -30 10 3 5 19 7 35 3 19 -3 30 -1 30 6 0 11 -84 14 -125 4z
m-85 -118 c0 -7 -101 -57 -106 -52 -2 2 20 16 48 30 59 29 58 29 58 22z m-154
-84 c-6 -9 -66 -33 -66 -26 0 6 52 34 63 35 5 0 6 -4 3 -9z m-186 -94 c0 -9
-143 -147 -148 -143 -6 6 130 146 141 146 4 0 7 -1 7 -3z m470 -335 c0 -29
-23 -129 -32 -137 -7 -7 -9 1 -4 25 4 19 9 54 13 78 3 23 10 42 14 42 5 0 9
-4 9 -8z m389 -116 c-2 -2 -20 -11 -39 -20 l-35 -17 25 20 c14 11 31 21 39 21
8 0 12 -2 10 -4z m-479 -76 c-7 -17 -15 -28 -18 -26 -2 3 1 19 8 36 7 17 15
28 18 26 2 -3 -1 -19 -8 -36z m420 16 c0 -3 -24 -20 -52 -39 -61 -38 -102 -66
-182 -121 -31 -21 -59 -37 -62 -34 -5 6 274 197 289 198 4 0 7 -2 7 -4z"/>
<path d="M2597 5043 c-18 -17 -4 -41 36 -61 55 -27 216 -60 225 -46 4 6 15 13
25 17 9 3 17 11 17 16 0 11 -38 3 -46 -10 -14 -23 -159 10 -197 44 -39 36 -54
46 -60 40z"/>
<path d="M2544 4794 c-5 -7 -26 -15 -46 -16 -29 -2 -35 -5 -27 -15 7 -7 29
-11 56 -10 35 2 48 -1 59 -17 26 -37 21 -11 -6 31 -20 32 -28 38 -36 27z"/>
<path d="M2310 4714 c0 -8 5 -12 10 -9 6 4 8 11 5 16 -9 14 -15 11 -15 -7z"/>
<path d="M2170 4705 c-10 -12 -10 -15 4 -15 9 0 16 7 16 15 0 8 -2 15 -4 15
-2 0 -9 -7 -16 -15z"/>
<path d="M2100 4689 c0 -5 4 -8 9 -4 6 3 14 -3 20 -12 8 -13 10 -14 11 -3 0
11 3 11 12 2 7 -7 16 -12 20 -12 4 0 -1 9 -12 20 -21 21 -60 27 -60 9z"/>
<path d="M2048 4683 c-14 -4 -13 -7 7 -29 24 -26 35 -30 35 -13 0 5 -5 7 -11
3 -9 -5 -10 1 -5 20 6 26 5 27 -26 19z"/>
<path d="M2200 4681 c0 -5 5 -13 10 -16 6 -3 10 -2 10 4 0 5 -4 13 -10 16 -5
3 -10 2 -10 -4z"/>
<path d="M2280 4680 c0 -5 5 -10 10 -10 6 0 10 5 10 10 0 6 -4 10 -10 10 -5 0
-10 -4 -10 -10z"/>
<path d="M8505 4654 c-9 -9 -14 -22 -11 -30 3 -7 0 -15 -7 -18 -8 -3 -8 -5 2
-5 11 -1 11 -4 0 -17 -10 -13 -10 -17 0 -24 8 -4 21 -6 30 -5 9 2 26 4 39 4
12 1 22 7 22 15 0 8 7 17 16 20 12 5 13 8 2 22 -49 60 -65 66 -93 38z"/>
<path d="M8811 4559 c-97 -26 -164 -61 -196 -103 l-26 -34 26 -51 c29 -55 82
-100 151 -128 24 -10 44 -23 44 -30 0 -7 -27 -34 -60 -60 -115 -91 -137 -113
-115 -113 19 -1 19 -1 2 -14 -21 -16 -12 -24 23 -21 14 1 28 -2 31 -8 11 -16
71 32 64 50 -3 10 13 35 45 69 27 29 50 60 50 68 0 9 9 16 20 16 29 0 24 13
-12 34 -18 11 -43 31 -55 45 -12 14 -22 20 -23 13 0 -7 -5 -10 -11 -7 -6 4 -8
10 -5 13 3 3 -21 23 -54 44 -33 22 -60 44 -60 49 0 5 12 12 28 15 15 4 43 15
62 24 42 21 164 43 217 39 50 -4 73 9 49 26 -14 11 -15 13 -1 19 8 3 15 1 15
-4 0 -6 4 -10 9 -10 22 0 4 44 -24 61 -39 24 -99 23 -194 -2z"/>
<path d="M5060 4536 c0 -9 -4 -16 -10 -16 -5 0 -10 5 -10 12 0 25 -19 -10 -55
-102 -20 -52 -45 -113 -55 -135 -36 -76 -104 -296 -94 -305 5 -4 25 -11 44
-15 34 -6 35 -5 59 47 29 65 117 191 166 238 20 19 69 55 109 80 133 82 165
105 166 117 0 6 8 14 18 17 9 3 -1 3 -23 -1 -22 -3 -52 -6 -66 -8 -14 -1 -30
-5 -36 -8 -6 -4 -18 -4 -27 -1 -10 4 -32 -4 -54 -19 -20 -14 -50 -29 -65 -33
l-28 -6 20 51 c10 28 15 51 10 51 -6 0 -15 -13 -20 -30 -12 -34 -30 -41 -21
-8 3 12 1 19 -4 15 -6 -3 -8 8 -6 28 2 18 -1 36 -7 39 -6 4 -11 0 -11 -8z
m-29 -123 c-12 -20 -14 -14 -5 12 4 9 9 14 11 11 3 -2 0 -13 -6 -23z"/>
<path d="M9962 4498 c-19 -19 -25 -21 -41 -11 -17 11 -24 8 -48 -15 -45 -45
-77 -82 -69 -82 4 0 23 17 41 38 65 70 35 17 -40 -72 -41 -49 -72 -93 -69 -97
3 -5 0 -9 -5 -9 -6 0 -28 -23 -48 -51 -30 -42 -38 -48 -43 -34 -6 16 -9 14
-28 -13 -25 -35 -40 -92 -24 -92 6 0 19 12 31 28 l20 27 -6 -25 c-3 -14 -10
-30 -15 -37 -12 -15 -2 -33 17 -33 13 0 46 34 76 80 l16 24 38 -43 c21 -23 47
-47 59 -53 23 -12 23 -14 -43 84 -18 27 -25 45 -19 49 6 4 7 12 4 18 -4 6 -2
11 4 11 8 0 10 -9 7 -22 -4 -16 3 -34 23 -58 27 -32 29 -33 30 -13 0 12 -10
43 -22 67 l-21 45 44 58 c24 32 77 92 117 133 75 78 86 96 51 85 -19 -6 -21
-4 -16 14 6 26 6 26 -21 -1z m-182 -212 c0 -2 -7 -9 -15 -16 -13 -11 -14 -10
-9 4 5 14 24 23 24 12z"/>
<path d="M3498 4489 c-86 -20 -241 -131 -289 -207 -58 -91 -57 -140 4 -193 61
-53 142 -49 361 21 98 32 127 45 141 66 9 14 14 28 12 30 -9 10 -87 12 -87 3
0 -5 -7 -9 -16 -9 -8 0 -12 -4 -9 -10 3 -5 3 -10 -2 -11 -4 0 -18 -2 -31 -3
-12 -2 -31 -12 -41 -23 -12 -12 -39 -23 -68 -28 -26 -4 -56 -14 -65 -22 -12
-11 -26 -13 -45 -8 -27 7 -27 7 -6 16 12 4 27 17 33 29 10 19 9 20 -7 12 -25
-12 -130 -16 -137 -4 -11 18 33 97 81 144 45 45 51 47 88 41 31 -5 35 -8 20
-14 -16 -6 -12 -8 15 -9 36 -2 34 -4 -12 -14 -36 -8 -35 -20 0 -35 31 -13 113
-1 161 23 39 21 81 72 81 100 0 26 -49 95 -67 96 -7 0 -13 5 -13 10 0 12 -50
11 -102 -1z m109 -81 c-12 -33 -197 -91 -197 -62 0 17 184 89 199 78 2 -2 1
-9 -2 -16z"/>
<path d="M4072 4484 c-34 -8 -84 -25 -110 -38 -108 -55 -211 -183 -198 -247 7
-37 26 -57 47 -52 11 3 20 -3 24 -16 3 -12 15 -21 25 -21 37 0 150 49 227 99
43 27 79 48 81 46 2 -1 -8 -25 -21 -52 -13 -26 -30 -64 -36 -85 -7 -20 -18
-39 -26 -42 -8 -3 -12 -11 -10 -19 4 -8 -8 -20 -30 -30 -46 -22 -52 -21 -30 3
17 18 17 20 2 14 -9 -3 -17 -10 -17 -15 0 -12 -82 -89 -95 -89 -16 0 -62 -54
-58 -67 2 -6 -1 -15 -8 -19 -8 -4 -9 -3 -5 4 4 7 1 21 -7 32 -14 20 -15 20
-22 3 -5 -10 -9 -22 -10 -28 0 -5 -11 -32 -23 -58 -26 -58 -26 -58 -5 -50 13
5 15 2 10 -11 -4 -10 -10 -29 -13 -42 -3 -13 -10 -24 -15 -24 -10 0 -12 -50
-3 -74 3 -9 10 -13 15 -10 5 3 17 -3 27 -14 11 -14 35 -22 72 -26 l55 -7 41
48 c23 27 60 88 83 135 23 48 46 88 51 90 11 3 100 203 100 222 0 7 13 32 28
57 16 24 48 94 72 154 24 61 47 114 52 119 30 35 -17 72 -78 60 -45 -8 -73 12
-47 32 17 12 17 13 -4 14 -12 0 -25 5 -28 10 -8 12 -33 11 -113 -6z m95 -30
c-3 -3 -12 -4 -19 -1 -8 3 -5 6 6 6 11 1 17 -2 13 -5z m-47 -43 c0 -5 -11 -12
-24 -15 -13 -3 -32 -9 -42 -13 -12 -4 -15 -3 -10 5 4 6 21 16 39 21 18 5 33
10 35 10 1 1 2 -3 2 -8z m110 -5 c0 -19 -313 -206 -345 -206 -20 0 -19 5 8 36
45 54 81 82 142 113 75 37 195 72 195 57z m-150 -413 c0 -5 -32 -73 -72 -152
-53 -106 -86 -158 -121 -193 -26 -26 -54 -48 -62 -48 -26 0 -18 78 14 145 36
76 69 116 156 193 68 59 85 70 85 55z m36 -90 c-10 -10 -19 5 -10 18 6 11 8
11 12 0 2 -7 1 -15 -2 -18z"/>
<path d="M9350 4491 c-83 -16 -242 -124 -293 -199 -66 -95 -66 -151 1 -207 32
-27 42 -30 106 -29 39 0 98 8 131 18 33 10 83 25 110 33 85 26 140 53 153 74
8 12 11 23 9 26 -10 9 -87 11 -87 2 0 -5 -8 -9 -17 -9 -15 0 -16 -2 -3 -10 13
-9 13 -10 0 -11 -48 -3 -62 -8 -79 -26 -11 -11 -39 -23 -63 -27 -23 -4 -54
-14 -66 -22 -16 -10 -33 -13 -50 -9 -26 7 -26 7 -5 16 12 4 27 17 33 29 10 19
9 20 -7 12 -25 -12 -130 -16 -137 -4 -11 18 33 97 81 144 46 45 50 47 93 41
39 -6 42 -8 20 -14 -23 -6 -22 -7 10 -9 36 -2 34 -4 -12 -14 -16 -4 -28 -11
-28 -16 0 -5 7 -6 17 -3 12 5 14 3 8 -8 -6 -11 -5 -12 6 -1 19 18 34 15 18 -4
-12 -14 -8 -15 37 -9 27 4 66 14 86 22 46 18 98 75 98 107 0 26 -49 95 -67 96
-7 0 -13 5 -13 10 0 11 -36 11 -90 1z m105 -70 c14 -23 -112 -81 -177 -81 -31
0 -38 17 -10 26 9 4 33 13 52 22 33 15 107 40 122 41 4 1 9 -3 13 -8z m-295
-341 c0 -5 -5 -10 -11 -10 -5 0 -7 5 -4 10 3 6 8 10 11 10 2 0 4 -4 4 -10z"/>
<path d="M4791 4467 c-6 -6 -11 -7 -11 -2 0 5 -25 -15 -55 -45 -52 -51 -70
-79 -42 -65 6 4 -4 -7 -23 -24 -44 -38 -148 -91 -179 -91 l-23 0 21 33 c65
103 101 167 101 179 0 9 -3 9 -8 2 -4 -6 -17 -10 -30 -9 -16 1 -28 -7 -38 -24
l-15 -26 6 33 c4 17 4 32 1 32 -12 0 -86 -138 -97 -181 -11 -41 -10 -50 4 -73
10 -14 26 -26 37 -26 13 0 20 -7 20 -20 0 -30 42 -43 93 -29 50 13 86 37 150
98 l47 45 0 -55 c0 -51 12 -79 32 -79 5 0 5 12 2 28 -7 24 -6 26 9 13 15 -12
17 -11 17 9 0 12 6 43 14 69 17 52 49 159 54 179 2 7 -7 12 -22 12 -14 0 -26
4 -26 9 0 15 -27 20 -39 8z m6 -179 c-3 -7 -5 -2 -5 12 0 14 2 19 5 13 2 -7 2
-19 0 -25z m-137 9 c0 -2 -10 -12 -22 -23 l-23 -19 19 23 c18 21 26 27 26 19z
m-217 -82 c3 -20 1 -25 -12 -23 -9 2 -17 13 -19 26 -5 31 24 29 31 -3z m176
-6 c-25 -22 -62 -39 -82 -39 -7 1 2 8 18 17 17 9 41 24 54 35 32 25 41 14 10
-13z"/>
<path d="M7842 4261 c-106 -211 -125 -261 -102 -261 6 0 10 -6 10 -14 0 -9 7
-12 20 -9 11 3 20 0 20 -6 0 -22 39 8 71 57 31 44 125 159 159 192 32 32 107
90 116 90 6 0 15 -32 22 -71 13 -73 55 -179 71 -179 5 0 12 -8 15 -17 4 -11
17 -19 35 -20 20 -1 28 2 25 10 -2 7 6 24 18 37 l23 25 6 -40 5 -40 5 35 c2
19 8 34 14 32 5 -2 12 5 16 15 7 17 8 16 9 -2 0 -11 15 14 34 55 55 124 96
213 112 243 12 20 13 32 6 39 -8 8 -13 3 -17 -15 -6 -22 -9 -24 -20 -13 -8 8
-11 23 -8 37 6 21 5 23 -10 10 -15 -12 -17 -11 -17 10 0 20 -2 21 -14 9 -20
-20 -142 -303 -156 -362 -9 -34 -17 -48 -29 -48 -23 0 -50 59 -44 95 4 17 2
26 -4 22 -6 -4 -13 15 -17 46 -3 29 -9 68 -12 87 -5 24 -4 31 4 26 7 -4 12
-24 13 -44 l1 -37 8 32 c12 53 -7 110 -24 71 -3 -10 -9 -8 -19 5 -8 9 -22 17
-31 17 -10 0 -15 4 -11 10 9 15 -52 3 -96 -18 -21 -11 -39 -18 -39 -17 0 1 7
19 15 38 19 47 19 47 -10 47 -16 0 -25 6 -25 16 0 13 -3 14 -14 5 -11 -10 -15
-8 -18 6 -3 11 -50 -73 -116 -206z m288 85 c0 -2 -7 -7 -16 -10 -8 -3 -12 -2
-9 4 6 10 25 14 25 6z m277 -208 c-3 -8 -6 -5 -6 6 -1 11 2 17 5 13 3 -3 4
-12 1 -19z"/>
<path d="M5510 4429 c-30 -16 -77 -51 -104 -77 -53 -52 -94 -128 -78 -144 6
-6 8 -17 5 -24 -3 -8 0 -14 7 -14 6 0 26 -11 44 -25 18 -14 44 -25 57 -25 41
0 193 66 265 115 47 32 50 31 58 -5 5 -29 7 -30 67 -30 44 0 60 3 56 13 -2 6
-12 12 -23 13 -45 2 -45 2 -31 32 27 53 11 128 -23 107 -6 -4 -18 -1 -26 6
-11 9 -18 9 -26 1 -7 -7 -21 -12 -33 -12 -11 0 -37 -11 -57 -25 -20 -14 -41
-25 -45 -25 -4 0 -33 -15 -64 -34 -31 -19 -71 -37 -89 -41 l-33 -7 22 28 c38
48 179 134 221 134 27 0 26 18 -2 30 l-23 9 23 0 c33 1 27 18 -9 25 -62 12
-104 6 -159 -25z"/>
<path d="M9607 4418 c-4 -15 -11 -17 -31 -12 -14 3 -26 3 -26 0 0 -13 31 -67
49 -85 10 -10 24 -32 32 -49 15 -33 29 -42 29 -18 0 8 12 23 27 34 l28 20 -30
60 c-32 64 -69 87 -78 50z"/>
<path d="M9765 4349 c-4 -6 -5 -12 -2 -15 2 -3 7 2 10 11 7 17 1 20 -8 4z"/>
<path d="M7671 4298 c-16 -43 -22 -68 -18 -68 3 0 12 20 20 45 16 45 14 65 -2
23z"/>
<path d="M9715 4292 c-26 -33 -37 -52 -32 -52 7 0 59 71 56 75 -2 2 -13 -9
-24 -23z"/>
<path d="M3600 4220 c-8 -5 -12 -11 -9 -14 2 -3 11 -1 19 4 8 5 12 11 9 14 -2
3 -11 1 -19 -4z"/>
<path d="M9435 4210 c-3 -6 1 -7 9 -4 18 7 21 14 7 14 -6 0 -13 -4 -16 -10z"/>
<path d="M5930 4190 c0 -5 5 -10 10 -10 6 0 10 5 10 10 0 6 -4 10 -10 10 -5 0
-10 -4 -10 -10z"/>
<path d="M3468 4164 c-31 -16 -38 -31 -10 -19 9 4 33 14 52 21 30 11 32 13 10
13 -14 0 -37 -7 -52 -15z"/>
<path d="M5847 4169 c8 -8 16 -8 30 0 16 9 14 10 -11 11 -22 0 -27 -3 -19 -11z"/>
<path d="M9308 4164 c-31 -16 -38 -31 -10 -19 9 4 33 14 52 21 30 11 32 13 10
13 -14 0 -37 -7 -52 -15z"/>
<path d="M8304 4005 c-10 -8 -14 -15 -8 -15 6 0 17 7 24 15 16 19 9 19 -16 0z"/>
<path d="M7557 4004 c-4 -4 -7 -14 -7 -23 0 -11 3 -12 11 -4 6 6 10 16 7 23
-2 6 -7 8 -11 4z"/>
<path d="M5330 3579 c0 -5 5 -7 10 -4 6 3 10 8 10 11 0 2 -4 4 -10 4 -5 0 -10
-5 -10 -11z"/>
<path d="M3860 3520 c0 -12 17 -12 45 0 17 7 15 9 -12 9 -18 1 -33 -3 -33 -9z"/>
<path d="M2435 2860 c-3 -5 1 -10 9 -10 9 0 16 5 16 10 0 6 -4 10 -9 10 -6 0
-13 -4 -16 -10z"/>
</g>
</svg>
